<mxfile host="app.diagrams.net" modified="2022-05-23T02:38:12.396Z" agent="5.0 (Macintosh; Intel Mac OS X 10_15_7) AppleWebKit/537.36 (KHTML, like Gecko) Chrome/101.0.0.0 Safari/537.36" etag="R1jdtKbKx2t-J4Cwg6db" version="18.0.6" type="github">
  <diagram id="sDzDsDj6bAW6XiSYmTlv" name="Page-1">
    <mxGraphModel dx="872" dy="563" grid="1" gridSize="10" guides="1" tooltips="1" connect="1" arrows="1" fold="1" page="1" pageScale="1" pageWidth="827" pageHeight="1169" math="0" shadow="0">
      <root>
        <mxCell id="0" />
        <mxCell id="1" parent="0" />
        <mxCell id="GJdycFKqQ1Wu2BRTlc2W-4" style="edgeStyle=orthogonalEdgeStyle;rounded=0;orthogonalLoop=1;jettySize=auto;html=1;entryX=0;entryY=0.5;entryDx=0;entryDy=0;" edge="1" parent="1" source="GJdycFKqQ1Wu2BRTlc2W-1" target="GJdycFKqQ1Wu2BRTlc2W-3">
          <mxGeometry relative="1" as="geometry" />
        </mxCell>
        <mxCell id="GJdycFKqQ1Wu2BRTlc2W-1" value="&lt;font style=&quot;vertical-align: inherit;&quot;&gt;&lt;font style=&quot;vertical-align: inherit;&quot;&gt;分配物理内存&lt;/font&gt;&lt;/font&gt;" style="ellipse;whiteSpace=wrap;html=1;aspect=fixed;" vertex="1" parent="1">
          <mxGeometry x="80" y="180" width="100" height="100" as="geometry" />
        </mxCell>
        <mxCell id="GJdycFKqQ1Wu2BRTlc2W-5" style="edgeStyle=orthogonalEdgeStyle;rounded=0;orthogonalLoop=1;jettySize=auto;html=1;" edge="1" parent="1" source="GJdycFKqQ1Wu2BRTlc2W-3">
          <mxGeometry relative="1" as="geometry">
            <mxPoint x="410" y="230" as="targetPoint" />
          </mxGeometry>
        </mxCell>
        <mxCell id="GJdycFKqQ1Wu2BRTlc2W-3" value="&lt;font style=&quot;vertical-align: inherit;&quot;&gt;&lt;font style=&quot;vertical-align: inherit;&quot;&gt;Page Fault&lt;/font&gt;&lt;/font&gt;" style="rounded=0;whiteSpace=wrap;html=1;" vertex="1" parent="1">
          <mxGeometry x="230" y="200" width="120" height="60" as="geometry" />
        </mxCell>
        <mxCell id="GJdycFKqQ1Wu2BRTlc2W-6" value="有足够大小的&lt;br&gt;空闲物理内存？" style="rhombus;whiteSpace=wrap;html=1;" vertex="1" parent="1">
          <mxGeometry x="414" y="160" width="140" height="140" as="geometry" />
        </mxCell>
        <mxCell id="GJdycFKqQ1Wu2BRTlc2W-7" value="唤醒后台内存回收线程(kswapd)" style="rounded=0;whiteSpace=wrap;html=1;" vertex="1" parent="1">
          <mxGeometry x="414" y="350" width="120" height="60" as="geometry" />
        </mxCell>
      </root>
    </mxGraphModel>
  </diagram>
</mxfile>
